<svg xmlns="http://www.w3.org/2000/svg" fill="none" viewBox="0 0 50 50"><g fill="#B3B3B3" clip-path="url(#a)"><path stroke="#B3B3B3" stroke-miterlimit="10" stroke-width=".25" d="M44.76 28.87c-.29-2.06-1.14-4.3-2.4-6.3-1.41-2.25-3.24-4.09-5.15-5.17-.22-.13-.45-.25-.67-.35-.67-5.67-4.7-11.93-9.43-14.62-2.55-1.45-4.98-1.7-6.84-.72l-5.95 3.14-.09.05c-1.96 1.03-3.04 3.28-3.04 6.32 0 .18 0 .36.01.54-1.53-.64-2.96-.63-4.07.04-1.28.77-1.98 2.31-1.98 4.34 0 4.13 2.96 9.16 6.6 11.23.84.48 2.54 1.44 4.6 2.61v6.27l-4.25-2.41c-.08-.68-.53-1.42-1.12-1.75-.37-.21-.75-.23-1.04-.07-.29.17-.46.5-.46.92 0 .73.51 1.6 1.15 1.96.21.12.42.18.61.18.15 0 .3-.04.43-.11.15-.09.27-.23.35-.4l4.5 2.55c.05.03.11.05.17.05.06 0 .12-.02.17-.05.11-.06.17-.17.17-.29v-6.47c1.35.77 2.83 1.6 4.31 2.44v11.91a.83.83 0 0 0-.52.1c-.29.17-.46.5-.46.92 0 .73.51 1.6 1.15 1.97.21.12.42.18.61.18.15 0 .3-.04.43-.11.29-.17.46-.5.46-.92 0-.67-.42-1.42-.98-1.83V33.2c1.43.81 2.84 1.61 4.13 2.33v6.87c0 .12.07.23.17.29l4.76 2.7c.08.68.53 1.42 1.12 1.75.21.12.42.18.61.18.15 0 .3-.04.43-.11.29-.17.46-.5.46-.92 0-.73-.51-1.6-1.15-1.97-.37-.21-.75-.23-1.04-.07-.15.09-.27.23-.35.39l-4.32-2.45V35.9c2.69 1.52 4.66 2.63 4.74 2.67.75.35 1.49.56 2.2.63.19.02.38.03.56.03.74 0 1.42-.16 2.03-.48l.04-.02 6.01-3.17c1.6-.84 2.48-2.66 2.48-5.12 0-.51-.04-1.04-.12-1.59l-.03.02Zm-8.7 9.28-.04.02c-.63.33-1.36.46-2.18.37-.63-.06-1.3-.26-1.97-.57-.33-.17-13.1-7.39-19.8-11.19-3.45-1.96-6.26-6.73-6.26-10.64 0-1.79.59-3.13 1.65-3.76 1.02-.61 2.41-.53 3.91.22.14.08.32.05.43-.06.07-.07.1-.16.09-.26v-.08c-.03-.32-.05-.65-.05-.98 0-2.78.95-4.81 2.68-5.72l.09-.05c.96-.47 2.13-.58 3.39-.31.86.18 1.76.54 2.69 1.06 4.62 2.62 8.54 8.76 9.12 14.29.01.12.09.22.2.27.29.13.54.26.79.4 4.04 2.29 7.33 7.89 7.33 12.48 0 .56-.05 1.1-.15 1.61-.29 1.37-.95 2.37-1.92 2.9Z"/><path d="m19.93 18.69 5.3 9.03-1.62.92-5.31-9.03v3.79l-1.69-1v-7.64l6.66 3.81v2.01l-3.34-1.89Z"/></g><defs><clipPath id="a"><path fill="#fff" d="M0 0h50v50H0z"/></clipPath></defs></svg>